# xmcd
#
# Track frame offsets:
# 150
# 18279
# 36650
# 52277
# 67842
#
# Disc length: 1174 seconds
#
# Revision: 1
# Processed by: cddbd v1.5.2PL0 Copyright (c) Steve Scherf et al.
# Submitted via: Easy CD Ripper 2.3.10
#
DISCID=42049405
DTITLE=Mel - Changing
DYEAR=2008
DGENRE=Vocal
TTITLE0=Changing - Mel
TTITLE1=Forever ?! - Mel
TTITLE2=Gone - Mel
TTITLE3=Read your mind - Mel
TTITLE4=Free to go - Mel
EXTD=
EXTT0=
EXTT1=
EXTT2=
EXTT3=
EXTT4=
PLAYORDER=
